<svg width="37" height="62" viewBox="0 0 37 62" fill="none" xmlns="http://www.w3.org/2000/svg">
<path d="M35.3048 61.7599C35.5559 61.875 35.8526 61.7647 35.9677 61.5137C36.0827 61.2627 35.9725 60.9659 35.7214 60.8508L35.3048 61.7599ZM32.3086 26.6435L31.8838 26.9073L32.3086 26.6435ZM2.14114 1.52307C2.21869 1.25804 2.0667 0.980326 1.80167 0.902783C1.53664 0.82524 1.25893 0.97723 1.18138 1.24226L2.14114 1.52307ZM33.8252 59.9322C33.5795 59.8061 33.2781 59.9029 33.152 60.1486C33.0259 60.3942 33.1227 60.6956 33.3684 60.8218L33.8252 59.9322ZM29.6826 58.6361C29.9091 58.7941 30.2207 58.7386 30.3787 58.5121C30.5367 58.2857 30.4812 57.974 30.2547 57.816L29.6826 58.6361ZM27.2032 55.1125C27.0261 54.9006 26.7108 54.8724 26.4989 55.0495C26.287 55.2265 26.2588 55.5419 26.4358 55.7538L27.2032 55.1125ZM24.4896 51.7873C24.5378 52.0592 24.7973 52.2406 25.0692 52.1924C25.3411 52.1442 25.5225 51.8847 25.4743 51.6128L24.4896 51.7873ZM25.8778 47.7113C25.9671 47.45 25.8277 47.1657 25.5664 47.0764C25.3051 46.9871 25.0209 47.1265 24.9316 47.3878L25.8778 47.7113ZM26.8314 43.5072C26.6886 43.7435 26.7644 44.0509 27.0008 44.1937C27.2371 44.3365 27.5445 44.2607 27.6873 44.0243L26.8314 43.5072ZM29.9744 40.4993C30.127 40.2692 30.0642 39.9589 29.8341 39.8062C29.604 39.6536 29.2937 39.7164 29.141 39.9465L29.9744 40.4993ZM31.3369 36.3947C31.205 36.6373 31.2948 36.9409 31.5374 37.0728C31.7801 37.2046 32.0836 37.1148 32.2155 36.8722L31.3369 36.3947ZM33.8218 32.8301C33.8815 32.5604 33.7113 32.2935 33.4416 32.2339C33.172 32.1742 32.9051 32.3445 32.8454 32.6141L33.8218 32.8301ZM32.724 28.7103C32.8072 28.9736 33.088 29.1197 33.3514 29.0365C33.6147 28.9534 33.7608 28.6725 33.6776 28.4092L32.724 28.7103ZM31.5037 24.7767C31.3152 24.575 30.9988 24.5642 30.797 24.7528C30.5952 24.9413 30.5845 25.2577 30.773 25.4595L31.5037 24.7767ZM27.8498 23.2399C28.0918 23.3729 28.3958 23.2846 28.5288 23.0426C28.6619 22.8007 28.5736 22.4966 28.3316 22.3636L27.8498 23.2399ZM24.7055 20.8301C24.4431 20.7442 24.1607 20.8874 24.0749 21.1499C23.989 21.4123 24.1322 21.6947 24.3946 21.7805L24.7055 20.8301ZM20.7262 20.7931C20.9956 20.8539 21.2632 20.6848 21.324 20.4154C21.3848 20.146 21.2157 19.8784 20.9463 19.8176L20.7262 20.7931ZM17.1588 19.0455C16.8876 18.9936 16.6256 19.1714 16.5737 19.4426C16.5218 19.7138 16.6996 19.9758 16.9708 20.0277L17.1588 19.0455ZM13.1855 19.2831C13.4557 19.3402 13.721 19.1674 13.7781 18.8972C13.8352 18.6271 13.6624 18.3618 13.3923 18.3047L13.1855 19.2831ZM9.69585 17.3884C9.43129 17.3093 9.15268 17.4596 9.07357 17.7242C8.99446 17.9887 9.1448 18.2673 9.40937 18.3465L9.69585 17.3884ZM5.74465 16.916C5.99011 17.0425 6.29165 16.9461 6.41815 16.7006C6.54465 16.4552 6.4482 16.1536 6.20274 16.0271L5.74465 16.916ZM3.27096 13.8578C3.08495 13.6537 2.7687 13.639 2.56461 13.8251C2.36051 14.0111 2.34585 14.3273 2.53186 14.5314L3.27096 13.8578ZM0.568714 11.0114C0.646117 11.2765 0.923746 11.4286 1.18882 11.3512C1.45389 11.2738 1.60603 10.9962 1.52863 10.7311L0.568714 11.0114ZM1.13694 7.07678C1.14795 6.80086 0.933191 6.56826 0.657268 6.55724C0.381344 6.54624 0.148742 6.76099 0.137733 7.03692L1.13694 7.07678ZM0.68493 3.14613C0.623845 3.41543 0.792639 3.68326 1.06194 3.74434C1.33124 3.80543 1.59907 3.63663 1.66016 3.36734L0.68493 3.14613ZM35.7214 60.8508C35.0509 60.5436 34.4194 60.2374 33.8252 59.9322L33.3684 60.8218C33.9768 61.1342 34.6218 61.4469 35.3048 61.7599L35.7214 60.8508ZM30.2547 57.816C28.9413 56.8997 27.9431 55.998 27.2032 55.1125L26.4358 55.7538C27.2445 56.7214 28.3133 57.6809 29.6826 58.6361L30.2547 57.816ZM25.4743 51.6128C25.2469 50.3303 25.425 49.036 25.8778 47.7113L24.9316 47.3878C24.4404 48.8246 24.2249 50.2946 24.4896 51.7873L25.4743 51.6128ZM27.6873 44.0243C28.3922 42.8577 29.1845 41.6902 29.9744 40.4993L29.141 39.9465C28.3598 41.1244 27.5505 42.3171 26.8314 43.5072L27.6873 44.0243ZM32.2155 36.8722C32.9314 35.555 33.5173 34.2066 33.8218 32.8301L32.8454 32.6141C32.5686 33.8656 32.0283 35.1226 31.3369 36.3947L32.2155 36.8722ZM33.6776 28.4092C33.4638 27.7319 33.153 27.0554 32.7333 26.3797L31.8838 26.9073C32.262 27.5161 32.5367 28.1169 32.724 28.7103L33.6776 28.4092ZM32.7333 26.3797C32.3711 25.7965 31.959 25.264 31.5037 24.7767L30.773 25.4595C31.1854 25.9008 31.5573 26.3816 31.8838 26.9073L32.7333 26.3797ZM28.3316 22.3636C27.2116 21.7478 25.9883 21.2498 24.7055 20.8301L24.3946 21.7805C25.6356 22.1865 26.7982 22.6617 27.8498 23.2399L28.3316 22.3636ZM20.9463 19.8176C19.6981 19.5359 18.4241 19.2876 17.1588 19.0455L16.9708 20.0277C18.2357 20.2697 19.4955 20.5153 20.7262 20.7931L20.9463 19.8176ZM13.3923 18.3047C12.1086 18.0334 10.8667 17.7385 9.69585 17.3884L9.40937 18.3465C10.6166 18.7074 11.8879 19.0088 13.1855 19.2831L13.3923 18.3047ZM6.20274 16.0271C5.0542 15.4352 4.06351 14.7274 3.27096 13.8578L2.53186 14.5314C3.42252 15.5087 4.51706 16.2834 5.74465 16.916L6.20274 16.0271ZM1.52863 10.7311C1.22435 9.68903 1.08085 8.48254 1.13694 7.07678L0.137733 7.03692C0.0780296 8.53336 0.229561 9.8499 0.568714 11.0114L1.52863 10.7311ZM1.66016 3.36734C1.79377 2.77828 1.95364 2.16394 2.14114 1.52307L1.18138 1.24226C0.988544 1.90134 0.823412 2.5356 0.68493 3.14613L1.66016 3.36734Z" fill="#B1DF5A" fill-opacity="0.65"/>
</svg>
