<svg xmlns="http://www.w3.org/2000/svg" width="320" height="3494" fill="none" viewBox="0 0 320 3494"><path stroke="#B1DF5A" stroke-dasharray="31 31" stroke-width="3" d="M40 1.5C-5.62629 12.8003 267.5 94 295.5 161C323.5 228 311.922 359.775 227.5 395.5C116.456 431.598 25 425 69 518.5C113 612 391.5 606 284 775C176.5 944 174 1032 80.5 1030.5C-13 1029 -26.5 907.5 69 878.5C164.5 849.5 269 870 284 1009.5C299 1149 201.5 1155.5 274.5 1308.5C347.5 1461.5 195.5 1347.5 112.5 1416.5C29.5 1485.5 275 1567.5 274.5 1764C274 1960.5 84 1868 58 2024C32 2180 439.5 2298.5 295.5 2476.5C151.5 2654.5 -123 3046 179 3179C481 3312 -0.5 3492.5 -0.5 3492.5"/></svg>